<svg width="854" height="414" viewBox="0 0 854 414" fill="none" xmlns="http://www.w3.org/2000/svg">
<path d="M758.251 240.725C758.421 265.029 756.791 287.315 753.763 307.024C753.548 308.507 753.312 309.988 753.055 311.425C751.467 321.024 749.533 329.976 747.344 338.243C746.957 339.66 746.571 341.055 746.184 342.429C737.768 371.844 725.808 391.725 713.056 399.068H177.311C177.311 399.068 131.644 359.476 122.476 302.924C122.24 301.485 122.025 300.047 121.853 298.587C118.289 270.44 124.021 238.385 148.691 205.041C159.941 189.863 174.735 179.299 191.717 172.021C193.048 171.463 194.359 170.925 195.711 170.411C220.895 160.555 250.481 157.464 280.196 156.992C281.699 156.971 283.201 156.948 284.704 156.948C302.396 156.82 320.044 157.549 336.769 158.216C338.359 158.301 339.925 158.365 341.493 158.429C368.503 159.568 392.849 160.405 410.52 157.164H410.541C412.172 156.863 413.719 156.519 415.221 156.133H415.243C434.803 151.345 444.443 140.245 437.508 116.369C424.067 70.0587 437.829 36.1147 467.78 17.3707C469.304 16.4054 470.893 15.4814 472.504 14.6014C489.444 5.41206 510.851 0.602728 535.068 0.668062C536.764 0.668062 538.481 0.710714 540.221 0.753381C560.811 1.37605 583.291 5.43338 606.628 13.184C619.188 17.3494 630.889 22.5027 641.732 28.4494C643.063 29.1801 644.395 29.9307 645.683 30.7041C666.937 42.9854 684.823 58.4867 699.637 76.0054C700.645 77.1654 701.612 78.3467 702.577 79.5494C741.075 126.997 757.863 188.252 758.251 240.725" fill="#E4EBF7"/>
<path d="M747.344 338.243C746.957 339.66 746.571 341.055 746.184 342.429C738.261 339.595 729.931 335.967 721.408 331.351C682.117 310.009 632.091 262.473 616.933 157.099C610.407 111.668 618.737 68.4054 641.732 28.4494C643.063 29.1801 644.395 29.9307 645.683 30.7041C625.5 65.7441 614.164 107.632 621.185 156.476C636.084 259.984 684.909 306.595 723.253 327.465C731.499 331.952 739.615 335.495 747.344 338.243" fill="white"/>
<path d="M753.763 307.025C753.548 308.507 753.312 309.988 753.055 311.425C728.236 299.768 696.953 274.412 682.353 219.361C668.248 166.052 673.872 118.732 699.637 76.0054C700.645 77.1654 701.612 78.3467 702.579 79.5494C678.081 120.944 672.863 166.739 686.519 218.267C700.473 270.933 730.039 295.539 753.763 307.025Z" fill="white"/>
<path d="M519.503 90.6481C521.585 160.599 513.62 205.793 493.673 237.225C472.783 270.16 437.937 290.064 380.676 301.764C370.005 303.955 359.464 305.049 349.115 305.049C316.888 305.049 286.529 294.551 259.928 274.027C228.989 250.129 205.308 214.144 191.717 172.021C193.048 171.463 194.359 170.925 195.711 170.411C209.023 211.827 232.231 247.209 262.569 270.633C296.664 296.976 337.22 306.273 379.817 297.579C486.308 275.787 519.201 225.525 515.208 90.7774C514.071 52.5174 520.748 22.3307 535.068 0.66808C536.764 0.66808 538.481 0.7107 540.221 0.753367C525.32 21.7934 518.364 51.9387 519.503 90.6481" fill="white"/>
<path d="M386.623 235.401C382.2 236.131 377.628 236.517 372.968 236.517C338.637 236.517 299.325 215.712 280.196 156.992C281.699 156.971 283.201 156.948 284.704 156.948C305.788 219.984 350.983 236.904 385.915 231.171C433.107 223.441 478.495 174.855 469.712 100.032C465.933 67.9334 465.763 40.5374 467.78 17.3708C469.304 16.4054 470.893 15.4814 472.504 14.6014C470.164 38.1974 470.079 66.3228 473.985 99.5374C483.068 177.003 435.747 227.349 386.623 235.401Z" fill="white"/>
<path d="M415.221 156.133C413.568 163.668 410.669 171.355 405.711 177.817C399.119 186.448 389.865 191.559 378.207 192.997C376.811 193.168 375.437 193.255 374.084 193.255C366.849 193.255 360.215 190.785 354.332 185.848C346.56 179.32 340.892 169.187 336.769 158.216C338.359 158.301 339.925 158.365 341.493 158.429C345.315 168.135 350.381 176.916 357.101 182.563C363.113 187.608 370.048 189.691 377.671 188.747C388.148 187.457 396.413 182.907 402.297 175.241C406.376 169.917 408.952 163.54 410.52 157.164H410.541C412.172 156.863 413.719 156.519 415.221 156.133" fill="white"/>
<path d="M248.505 399.068H243.825C224.567 354.968 196.805 325.576 161.208 311.64C148.283 306.575 135.165 303.933 122.476 302.924C122.24 301.485 122.025 300.047 121.853 298.587C135.229 299.553 149.099 302.303 162.776 307.647C199.94 322.204 228.753 352.907 248.505 399.068Z" fill="white"/>
<path d="M155.573 266.16L142.305 279.837L136.765 271.699L134.919 268.973C129.015 270.455 120.297 258.904 116.799 252.743C113.32 246.559 127.276 237.025 127.276 237.025C124.999 230.197 115.853 225.904 115.596 224.015C115.337 222.147 117.615 220.129 125.923 224.015C134.253 227.921 141.489 241.728 141.489 241.728C142.969 237.712 136.4 226.849 137.603 225.625C138.805 224.421 145.247 225.904 150.205 236.359C155.187 246.837 152.224 259.183 152.224 259.183L152.288 259.291L155.573 266.16" fill="#98B2D8"/>
<path d="M126.783 235.823C126.783 235.823 136.643 247.1 135.58 251.528C134.516 255.957 129.552 250.817 129.552 250.817C129.552 250.817 134.113 256.091 132.637 257.836C131.161 259.58 125.66 255.151 125.66 255.151C125.66 255.151 132.235 263.337 125.66 262.129C119.084 260.921 110.825 248.521 117.169 247.273C117.169 247.273 116.401 238.244 122.171 241.331C122.171 241.331 119.587 233.804 126.783 235.823Z" fill="#B1C3E8"/>
<path d="M246.579 399.147C246.579 399.147 257.677 366.727 251.837 334.757C251.837 334.757 251.816 334.692 251.795 334.543L251.752 334.285C251.581 333.448 251.409 332.611 251.237 331.773C251.237 331.773 244.796 337.399 235.908 342.98C225.236 349.7 211.001 356.377 200.073 353.244C180.02 347.511 150.692 308.521 137.08 277.733C137.08 277.733 143.887 267.533 157.476 264.4C157.476 264.4 184.68 300.641 208.661 309.229C208.661 309.229 221.544 293.836 231.549 271.292C237.947 256.907 247.544 247.803 259.653 242.909C266.524 240.095 274.211 238.657 282.561 238.4L303.581 228.587C303.581 228.587 306.995 228.609 312.299 229.296C322.153 230.585 338.535 234.191 351.781 244.283C372.179 259.827 401.528 399.147 401.528 399.147H246.579" fill="#B7CAE5"/>
<path d="M251.795 334.543C251.624 333.62 251.431 332.696 251.237 331.773C251.237 331.773 244.796 337.399 235.908 342.98L242.112 289.907C248.424 314.211 251.452 332.375 251.795 334.543" fill="#97B3D1"/>
<path d="M312.299 229.296C309.056 249.908 288.423 268.952 273.523 268.693C261.543 268.479 259.781 251.303 259.653 242.909C266.524 240.095 274.211 238.657 282.561 238.4L303.581 228.587C303.581 228.587 306.995 228.609 312.299 229.296Z" fill="#CED9EA"/>
<path d="M276.631 378.081C276.631 378.081 323.968 328.821 326.025 277.024L339.98 320.681L334.612 366.132L276.631 378.081" fill="#97B3D1"/>
<path d="M275.256 399.136H222.252C222.252 399.136 222.387 391.889 230.572 389.473C238.757 387.059 243.991 376.861 268.548 378.203L275.256 399.136" fill="#98B2D8"/>
<path d="M329.485 350.423C329.485 350.423 304.515 364.784 265.193 374.981C265.193 374.981 259.736 388.133 269.308 399.136H345.385L329.485 350.423Z" fill="#B6C5DD"/>
<path d="M236.503 199.879C236.503 199.879 225.199 184.276 226.589 173.772C227.979 163.267 237.704 165.733 237.704 165.733C237.704 165.733 237.251 140.207 260.881 146.733C260.881 146.733 260.36 138.94 265.521 139.141C270.68 139.343 278.772 151.212 278.772 151.212C278.772 151.212 280.78 142.419 284.275 144.495C287.769 146.569 288.847 155.644 296.145 160.012C303.444 164.38 307.959 170.033 302.228 187.744C296.497 205.456 300.797 206.709 298.751 215.804C296.807 224.44 295.253 229.693 289.893 230.179C284.533 230.664 264.013 209.016 264.013 209.016L236.503 199.879" fill="#5D7CA0"/>
<path d="M303.581 228.587C303.581 228.587 290.42 260.515 276.593 258.109C269.723 256.907 268.199 252.72 268.135 247.868C268.069 241.533 270.539 234.105 266.803 230.992L283.377 207.44L287.028 202.244C287.028 202.244 291.493 215.169 303.581 228.587" fill="#98B2D8"/>
<path d="M268.135 247.868C268.069 241.533 270.539 234.105 266.803 230.992L283.377 207.44C284.795 209.092 285.804 212.033 286.212 216.649C288.401 240.975 275.541 246.623 268.135 247.868" fill="#799CBF"/>
<path d="M234.892 187.465C234.892 187.465 239.373 228.591 256.155 237.848C270.739 245.893 288.452 221.56 288.096 209.524C288.096 209.524 294.452 204.669 293.392 196.811C292.332 188.953 284.023 191.559 283.028 204.223C283.028 204.223 276.272 203.741 275.021 187.913C270.78 191.424 266.203 190.343 261.393 186.071C261.393 186.071 259.008 194.88 246.731 184.584C246.731 184.584 242.099 190.875 234.892 187.465" fill="#98B2D8"/>
<path d="M630.723 346.803C630.723 346.803 652.383 382.944 659.885 400.477H583.505C583.505 400.477 579.153 379.352 571.5 359.051L630.723 346.803" fill="#5D7CA0"/>
<path d="M600.932 354.855C596.753 368.704 590.379 380.531 580.923 389.513L583.505 400.477L491.076 399.338L501.364 336.068L600.932 354.855Z" fill="#799CBF"/>
<path d="M745.927 157.615C745.927 157.615 748.987 138.452 755.071 131.653C761.153 124.855 777.793 114.797 779.76 118.376C781.729 121.953 765.089 133.175 765.089 133.175C765.089 133.175 772.604 131.385 779.045 142.477C785.485 153.571 764.732 162.159 764.732 162.159L760.616 171.463L744.156 161.085L745.927 157.615Z" fill="#799CBF"/>
<path d="M767.212 133.537C767.212 133.537 757.937 142.968 759.295 145.664C760.649 148.359 765.761 144.123 765.761 144.123C765.761 144.123 761.588 150.475 764.823 152.112C768.057 153.748 773.065 148.261 773.065 148.261C773.065 148.261 768.892 154.036 771.292 155.096C773.692 156.155 786.524 147.108 784.228 144.991C781.933 142.872 780.681 144.604 780.681 144.604C780.681 144.604 783.367 140.081 780.681 138.637C777.757 137.065 776.3 139.888 776.3 139.888C776.3 139.888 778.491 136.423 776.717 135.076C774.943 133.728 771.188 135.461 771.188 135.461C771.188 135.461 772.419 129.688 767.212 133.537Z" fill="#98B2D8"/>
<path d="M758.604 133.308C755.785 132.503 750.06 138.363 750.06 138.363C747.808 141.26 747.348 147.033 747.257 149.695C746.969 157.131 744.156 161.085 744.156 161.085L752.509 166.352C758.977 158.019 756.861 147.347 755.817 143.571C758.971 138.86 760.285 133.789 758.604 133.308" fill="#98B2D8"/>
<path d="M764.009 173.431C764.009 173.431 736.097 247.76 691.74 254.352C671.903 257.293 656.915 257.593 646.439 257.035C633.943 256.392 627.803 254.503 627.352 254.373L627.329 254.352C627.329 254.352 615.156 277.024 623.035 309.595C630.893 342.143 633.771 348.949 633.771 348.949C633.771 348.949 573.976 392.92 525.347 352.879L481.461 284.645L467.72 263.261C467.72 263.261 480.345 221.803 515.943 194.857L515.964 194.836C529.383 184.66 546.087 176.544 566.591 173.539C577.111 171.949 588.619 171.713 601.2 173.216C601.2 173.216 610.863 175.943 626.579 181.696C635.037 184.788 645.257 188.76 656.657 193.656C689.228 207.611 698.181 211.776 698.181 211.776C698.181 211.776 732.877 177.553 741.831 156.792C741.831 156.792 759.715 158.595 764.009 173.431" fill="#B7CAE5"/>
<path d="M540.079 207.368C539.917 224.027 536.359 240.167 534.791 252.703L562.371 247.121L605.288 289.551C605.288 289.551 610.725 301.983 599.656 304.131C590.981 305.812 550.449 311.451 550.449 311.451C541.108 324.164 536.887 343.613 532.228 362.485L491.076 290.98L540.079 207.368Z" fill="#97B3D1"/>
<path d="M601.2 211.368C581.984 206.495 571.872 189.212 566.591 173.539C577.111 171.949 588.619 171.713 601.2 173.216C601.2 173.216 610.861 175.943 626.579 181.696C628.424 195.416 627.759 218.088 601.2 211.368" fill="#CED9EA"/>
<path d="M651.655 226.569C651.655 226.569 647.533 242.715 646.439 257.035C633.943 256.392 627.803 254.503 627.352 254.373L627.329 254.352C627.329 254.352 638.237 235.695 651.655 226.569" fill="#97B3D1"/>
<path d="M603.692 296.624L555.764 303.581C554.347 303.787 553.029 302.804 552.824 301.385L542.236 228.435C542.029 227.017 543.013 225.701 544.431 225.496L592.361 218.539C593.779 218.333 595.095 219.316 595.301 220.735L605.888 293.684C606.093 295.101 605.111 296.417 603.692 296.624" fill="#F2F4F9"/>
<path d="M568.816 250.187L576.152 247.324C576.152 247.324 583.131 228.001 591.807 240.167C591.807 240.167 597.801 236.588 597.623 234.621C597.443 232.652 597.355 229.791 597.355 229.791C597.355 229.791 609.499 232.415 606.781 249.352C604.359 264.448 595.851 264.383 586.809 264.317C585.707 264.309 584.596 264.303 583.488 264.321L570.785 269.331L568.816 250.187" fill="#98B2D8"/>
<path d="M573.547 273.803C573.547 273.803 516.393 311.635 491.703 293.384C487.945 290.593 484.531 287.652 481.461 284.645L467.72 263.261C467.72 263.261 480.345 221.803 515.943 194.857L515.964 194.836C527.763 189.535 540.092 191.465 540.727 202.397C542.236 228.435 519.967 244.447 517.209 256.263L568.437 245.893C568.437 245.893 576.767 254.739 573.547 273.803" fill="#C1CFE5"/>
<path d="M640.731 133.597C640.731 133.597 648.899 116.148 645.557 106.092C642.217 96.0347 633.131 100.287 633.131 100.287C633.131 100.287 628.775 75.1307 606.795 85.984C606.795 85.984 605.839 78.2307 600.809 79.4001C595.779 80.5681 590.064 93.7467 590.064 93.7467C590.064 93.7467 586.439 85.4881 583.397 88.1827C580.355 90.8787 581.003 99.9947 574.655 105.656C568.308 111.319 564.936 117.72 573.895 134.037C582.853 150.356 578.867 152.396 582.587 160.941C586.12 169.059 588.633 173.927 593.988 173.396C599.345 172.864 615.427 147.744 615.427 147.744L640.731 133.597" fill="#5D7CA0"/>
<path d="M580.247 174.407C580.247 174.407 592.881 205.547 612.741 200.448C619.496 198.712 619.535 191.456 618.687 186.679C617.559 180.445 613.737 173.613 616.82 169.853L596.113 149.837L591.551 145.42C591.551 145.42 589.595 158.955 580.247 174.407Z" fill="#98B2D8"/>
<path d="M618.687 186.679C617.559 180.445 613.737 173.613 616.82 169.853L596.113 149.837C595.031 151.727 594.593 154.805 595.061 159.417C597.484 183.72 611.177 186.848 618.687 186.679" fill="#799CBF"/>
<path d="M639.977 121.103C639.977 121.103 643.309 162.337 628.568 174.584C615.756 185.228 593.784 164.66 591.871 152.772C591.871 152.772 584.715 149.199 584.279 141.281C583.843 133.364 592.493 134.361 595.853 146.612C595.853 146.612 602.397 144.868 600.648 129.088C605.475 131.739 609.765 129.816 613.687 124.716C613.687 124.716 617.687 132.919 627.808 120.5C627.808 120.5 633.541 125.805 639.977 121.103" fill="#98B2D8"/>
<path d="M484.243 399.338C479.955 399.338 477.211 399.147 477.211 399.147H374.689C332.265 399.147 315.261 398.095 311.203 384.848C310.967 384.139 310.795 383.388 310.645 382.593C310.121 379.793 310.168 375.843 310.752 371.049C312.763 354.571 321.14 328.109 334.649 304.004C335.38 302.701 336.124 301.408 336.884 300.12L345.54 307.793C345.861 308.077 346.227 308.201 346.581 308.201C347.577 308.201 348.489 307.224 348.095 306.084L343.723 293.455H357.257C360.183 293.455 362.555 291.083 362.555 288.157V267.484C363.215 266.887 363.873 266.307 364.533 265.741C372.817 258.637 380.983 254.052 388.581 251.109C400.497 246.493 411.017 245.893 418.404 245.893C431.413 245.893 441.915 246.859 450.824 248.941C458.197 250.669 464.487 253.149 470.211 256.457C482.659 263.651 492.428 274.759 504.837 290.541V320.099C504.837 322.916 507.121 325.197 509.936 325.197H526.233C530.365 334.316 533.3 343.272 534.912 351.564C535.5 354.591 535.913 357.528 536.143 360.352C536.623 366.252 536.305 371.659 535.136 376.345V376.367C534.515 378.9 533.635 381.219 532.496 383.303C525.881 395.396 505.205 398.508 491.101 399.176C488.563 399.296 486.236 399.338 484.243 399.338V399.338ZM372.544 297.779C369.452 322.413 365.955 346.687 354.829 364.183C383.991 385.925 409.561 393.095 430.617 393.095C471.444 393.095 495.281 366.125 495.281 366.125C484.175 344.156 480.963 321.192 481.325 297.779L465.939 347.876H382.205L372.544 297.779" fill="url(#paint0_linear)"/>
<path d="M430.617 393.095C409.561 393.095 383.991 385.925 354.829 364.183C365.955 346.687 369.452 322.413 372.544 297.779L382.205 347.876H465.939L481.325 297.779C480.963 321.192 484.175 344.156 495.281 366.125C495.281 366.125 471.444 393.095 430.617 393.095" fill="url(#paint1_linear)"/>
<path d="M380.251 399.147H374.691C332.265 399.147 315.261 398.095 311.203 384.848C308.992 374.435 311.804 363.484 324.493 360.221C344.375 355.112 378.984 375.251 378.984 375.251L380.251 399.147" fill="url(#paint2_linear)"/>
<path d="M535.137 376.345V376.367C534.515 378.9 533.635 381.219 532.496 383.303C522.127 402.259 477.211 399.147 477.211 399.147H446.788L450.652 373.383C450.652 373.383 504.584 348.413 523.908 356.205C533.356 360.007 536.253 367.908 535.137 376.345" fill="url(#paint3_linear)"/>
<path d="M450.824 248.941C449.921 260.985 444.94 282.928 420.68 282.928C395.109 282.928 389.697 261.308 388.581 251.109C400.497 246.493 411.017 245.893 418.404 245.893C431.415 245.893 441.915 246.86 450.824 248.941" fill="#1F395E"/>
<path d="M472.917 399.136H374.691C372.319 399.136 370.396 397.214 370.396 394.843C370.396 392.471 372.319 390.548 374.691 390.548H472.917C475.288 390.548 477.211 392.471 477.211 394.843C477.211 397.214 475.288 399.136 472.917 399.136Z" fill="white"/>
<path d="M484.811 325.289L484.445 327.523V327.543L474.269 390.559H374.153L364.084 325.247C363.591 322.047 366.081 319.148 369.301 319.148H479.593C482.857 319.148 485.327 322.069 484.811 325.289" fill="url(#paint4_linear)"/>
<path d="M484.445 327.543L474.269 390.559H374.691L408.441 387.037C443.093 383.452 472.616 360.307 484.445 327.543Z" fill="#3150BC"/>
<path d="M420.272 273.804H419.607C415.741 273.804 412.543 273.009 409.944 271.851C403.632 269.016 399.811 262.424 399.961 255.512C399.983 254.803 399.983 254.116 399.983 253.428C400.004 247.696 399.639 242.929 399.639 242.929V240.353L435.708 238.744C435.837 243.939 436.439 248.555 437.147 252.248L437.191 252.419C439.251 263.261 431.307 273.525 420.272 273.804" fill="#FEB19E"/>
<path d="M437.147 252.248C422.117 269.896 406.681 259.591 399.983 253.428C400.004 247.696 399.639 242.929 399.639 242.929V240.353L435.708 238.744C435.837 243.939 436.439 248.555 437.147 252.248Z" fill="#FF856A"/>
<path d="M388.601 222.82C388.601 222.82 399.784 254.347 418.436 254.347C437.088 254.347 444.843 220.399 444.843 220.399V190.876H387.169L388.601 222.82" fill="#FEB19E"/>
<path d="M382.599 205.033C382.599 205.033 377.107 206.039 378.045 212.345C378.984 218.652 384.709 226.301 389.361 222.276L382.599 205.033Z" fill="#FEB19E"/>
<path d="M449.197 202.397C449.197 202.397 454.776 202.644 454.703 209.021C454.632 215.397 449.999 223.753 444.843 220.399L449.197 202.397" fill="#FEB19E"/>
<path d="M449.197 202.397C449.197 202.397 447.257 213.42 444.843 220.399C444.843 220.399 440.423 219.508 438.992 207.877C438.992 207.877 429.439 209.751 423.445 200.716C423.445 200.716 422.015 209.661 412.8 203.309C406.656 208.327 399.392 208.855 391.151 205.457C391.151 205.457 392.537 217.185 388.601 222.82C388.601 222.82 387.169 218.188 382.599 205.033C382.599 205.033 380.636 205.103 379.383 206.892C379.383 206.892 369.501 187.565 374.153 178.261C378.805 168.957 385.068 172.536 385.068 172.536C385.068 172.536 382.741 159.833 396.519 155.181C410.295 150.529 410.295 144.267 412.443 145.52C414.589 146.772 415.484 151.424 415.484 151.424C415.484 151.424 439.28 148.919 445.721 174.504C445.721 174.504 462.908 175.053 452.708 203.86C452.708 203.86 452.037 202.665 449.197 202.397" fill="url(#paint5_linear)"/>
<path d="M362.555 261.164C358.833 252.909 355.183 246.875 351.781 244.283C338.535 234.191 322.153 230.585 312.299 229.296C312.02 229.26 311.747 229.225 311.479 229.193H338.455C346.417 232.729 354.551 234.889 362.555 235.877V261.164ZM262.041 241.997V239.444C262.121 239.445 262.201 239.447 262.281 239.447C264.492 239.447 266.707 238.879 268.859 237.888C268.833 238.599 268.78 239.332 268.715 240.081C266.419 240.597 264.192 241.235 262.041 241.997V241.997ZM361.553 231.389C358.119 230.893 354.661 230.167 351.209 229.193H357.257C359.025 229.193 360.591 230.059 361.553 231.389Z" fill="#AEC6ED"/>
<path d="M362.555 235.877C354.551 234.889 346.417 232.729 338.455 229.193H351.209C354.661 230.167 358.119 230.893 361.553 231.389C362.183 232.26 362.555 233.331 362.555 234.488V235.877" fill="#C2D7F4"/>
<path d="M336.884 300.12L332.033 295.82L327.589 281.92H346.312C347.092 281.92 347.724 281.288 347.724 280.508C347.724 279.728 347.092 279.095 346.312 279.095H326.687L326.025 277.024C325.997 277.713 325.961 278.407 325.919 279.095H274.517C273.737 279.095 273.105 279.728 273.105 280.508C273.105 281.288 273.737 281.92 274.517 281.92H325.697C325.336 285.793 324.733 289.647 323.933 293.455H267.337C264.412 293.455 262.041 291.083 262.041 288.157V258.584C263.977 264.084 267.427 268.584 273.523 268.693C273.623 268.696 273.723 268.696 273.823 268.696C278.055 268.696 282.732 267.165 287.333 264.501H346.312C347.092 264.501 347.724 263.868 347.724 263.088C347.724 262.308 347.092 261.676 346.312 261.676H291.62C293.935 259.963 296.185 257.983 298.303 255.792H346.312C347.092 255.792 347.724 255.159 347.724 254.379C347.724 253.599 347.092 252.967 346.312 252.967H300.856C306.575 246.204 310.947 237.885 312.299 229.296C312.02 229.26 311.747 229.225 311.479 229.193C311.747 229.225 312.02 229.26 312.299 229.296C322.153 230.585 338.535 234.191 351.781 244.283C355.183 246.875 358.833 252.909 362.555 261.164V267.484C357.891 271.705 353.199 276.744 348.561 282.756C344.356 288.215 340.456 294.069 336.884 300.12V300.12ZM274.517 270.385C273.737 270.385 273.105 271.019 273.105 271.799C273.105 272.579 273.737 273.211 274.517 273.211H346.312C347.092 273.211 347.724 272.579 347.724 271.799C347.724 271.019 347.092 270.385 346.312 270.385H274.517Z" fill="#8CAADB"/>
<path d="M273.823 268.696C273.723 268.696 273.623 268.696 273.523 268.693C267.427 268.584 263.977 264.084 262.041 258.584V241.997C264.192 241.235 266.419 240.597 268.715 240.081C268.496 242.535 268.135 245.147 268.133 247.608C268.133 247.695 268.133 247.781 268.135 247.868C268.199 252.72 269.723 256.907 276.593 258.109C277.095 258.196 277.596 258.239 278.096 258.239C280.593 258.239 283.053 257.187 285.403 255.48C285.645 255.675 285.952 255.792 286.287 255.792H298.303C296.185 257.983 293.935 259.963 291.62 261.676H274.517C273.737 261.676 273.105 262.308 273.105 263.088C273.105 263.868 273.737 264.501 274.517 264.501H287.333C282.732 267.165 278.055 268.696 273.823 268.696V268.696ZM300.856 252.967H288.345C291.091 250.276 293.621 246.855 295.799 243.432C296.297 243.215 296.644 242.717 296.644 242.14C296.644 242.119 296.644 242.099 296.643 242.079C300.116 236.391 302.555 230.967 303.324 229.193H311.479C311.747 229.225 312.02 229.26 312.299 229.296C310.947 237.885 306.575 246.204 300.856 252.967Z" fill="#9DB7E0"/>
<path d="M332.033 295.82L329.364 293.455H323.933C324.733 289.647 325.336 285.793 325.697 281.92H327.589L332.033 295.82ZM326.687 279.095H325.919C325.961 278.407 325.997 277.713 326.025 277.024L326.687 279.095Z" fill="#7397C8"/>
<path d="M278.096 258.239C277.596 258.239 277.095 258.196 276.593 258.109C269.723 256.907 268.199 252.72 268.135 247.868C271.024 247.383 274.745 246.225 278.079 243.551H295.232C295.435 243.551 295.625 243.508 295.799 243.432C293.621 246.855 291.091 250.276 288.345 252.967H286.287C285.507 252.967 284.875 253.599 284.875 254.379C284.875 254.824 285.081 255.221 285.403 255.48C283.053 257.187 280.593 258.239 278.096 258.239V258.239ZM296.643 242.079C296.611 241.325 295.992 240.727 295.232 240.727H280.927C283.165 237.991 284.983 234.265 285.871 229.193H303.324C302.555 230.967 300.116 236.391 296.643 242.079Z" fill="#7496CF"/>
<path d="M268.135 247.868C268.133 247.781 268.133 247.695 268.133 247.608C268.135 244.396 268.751 240.924 268.859 237.888C272.747 236.097 276.431 232.921 279.515 229.193H285.871C284.983 234.265 283.165 237.991 280.927 240.727H274.517C273.737 240.727 273.105 241.359 273.105 242.14C273.105 242.919 273.737 243.551 274.517 243.551H278.079C274.745 246.225 271.024 247.383 268.135 247.868Z" fill="#5C83B7"/>
<path d="M262.281 239.447C262.201 239.447 262.121 239.445 262.041 239.444V234.488C262.041 231.564 264.412 229.193 267.337 229.193H279.515C276.431 232.921 272.747 236.097 268.859 237.888C266.707 238.879 264.492 239.447 262.281 239.447" fill="#7496CF"/>
<path d="M346.581 308.201C346.227 308.201 345.861 308.077 345.54 307.793L336.884 300.12C340.456 294.069 344.356 288.215 348.561 282.756C353.199 276.744 357.891 271.705 362.555 267.484V288.157C362.555 291.083 360.183 293.455 357.257 293.455H343.723L348.095 306.084C348.489 307.224 347.577 308.201 346.581 308.201" fill="url(#paint6_linear)"/>
<path d="M295.799 243.432C296.087 242.981 296.368 242.528 296.643 242.079C296.644 242.099 296.644 242.119 296.644 242.14C296.644 242.717 296.297 243.215 295.799 243.432Z" fill="#5F87D0"/>
<path d="M295.232 243.551H278.079C279.073 242.752 280.033 241.819 280.927 240.727H295.232C295.992 240.727 296.611 241.325 296.643 242.079C296.368 242.528 296.087 242.981 295.799 243.432C295.625 243.508 295.435 243.551 295.232 243.551Z" fill="#466FC0"/>
<path d="M278.079 243.551H274.517C273.737 243.551 273.105 242.919 273.105 242.14C273.105 241.359 273.737 240.727 274.517 240.727H280.927C280.033 241.819 279.073 242.752 278.079 243.551Z" fill="#3861AA"/>
<path d="M346.312 255.792H298.303C299.179 254.885 300.031 253.941 300.856 252.967H346.312C347.092 252.967 347.724 253.599 347.724 254.379C347.724 255.159 347.092 255.792 346.312 255.792Z" fill="#557DCC"/>
<path d="M298.303 255.792H286.287C285.952 255.792 285.645 255.675 285.403 255.48C286.407 254.751 287.388 253.904 288.345 252.967H300.856C300.031 253.941 299.179 254.885 298.303 255.792Z" fill="#5F87D0"/>
<path d="M285.403 255.48C285.081 255.221 284.875 254.824 284.875 254.379C284.875 253.599 285.507 252.967 286.287 252.967H288.345C287.388 253.904 286.407 254.751 285.403 255.48" fill="#466FC0"/>
<path d="M346.312 264.501H287.333C288.775 263.667 290.209 262.72 291.62 261.676H346.312C347.092 261.676 347.724 262.308 347.724 263.088C347.724 263.868 347.092 264.501 346.312 264.501" fill="#557DCC"/>
<path d="M287.333 264.501H274.517C273.737 264.501 273.105 263.868 273.105 263.088C273.105 262.308 273.737 261.676 274.517 261.676H291.62C290.209 262.72 288.775 263.667 287.333 264.501" fill="#5F87D0"/>
<path d="M346.312 273.211H274.517C273.737 273.211 273.105 272.579 273.105 271.799C273.105 271.019 273.737 270.385 274.517 270.385H346.312C347.092 270.385 347.724 271.019 347.724 271.799C347.724 272.579 347.092 273.211 346.312 273.211Z" fill="#557DCC"/>
<path d="M346.312 281.92H327.589L326.687 279.095H346.312C347.092 279.095 347.724 279.728 347.724 280.508C347.724 281.288 347.092 281.92 346.312 281.92V281.92ZM325.697 281.92H274.517C273.737 281.92 273.105 281.288 273.105 280.508C273.105 279.728 273.737 279.095 274.517 279.095H325.919C325.859 280.039 325.785 280.979 325.697 281.92" fill="#557DCC"/>
<path d="M327.589 281.92H325.697C325.785 280.979 325.859 280.039 325.919 279.095H326.687L327.589 281.92Z" fill="#456FBA"/>
<path d="M755.915 413.091H103.223C101.935 413.091 100.892 412.048 100.892 410.761V401.465C100.892 400.179 101.935 399.136 103.223 399.136H755.915C757.2 399.136 758.244 400.179 758.244 401.465V410.761C758.244 412.048 757.2 413.091 755.915 413.091Z" fill="#C1C8D3"/>
<path d="M622.349 364.716H594.437V388.869C594.437 394.503 599.004 399.069 604.637 399.069H612.151C617.784 399.069 622.349 394.503 622.349 388.869V364.716Z" fill="url(#paint7_linear)"/>
<path d="M603.295 364.716V357.268C603.295 356.045 604.285 355.055 605.509 355.055H608.327C609.549 355.055 610.54 354.064 610.54 352.841V350.023C610.54 348.8 609.549 347.808 608.327 347.808H599.268C593.043 347.808 587.997 342.761 587.997 336.536C587.997 330.311 593.043 325.264 599.268 325.264H611.279C612.501 325.264 613.492 324.273 613.492 323.051V322.044C613.492 315.596 618.72 310.369 625.167 310.369C631.615 310.369 636.841 315.596 636.841 322.044C636.841 329.011 631.195 334.657 624.228 334.657H603.093C601.869 334.657 600.879 335.649 600.879 336.872C600.879 338.095 601.869 339.085 603.093 339.085H614.633C618.895 339.085 622.349 342.54 622.349 346.803V351.633C622.349 355.895 618.895 359.349 614.633 359.349C613.411 359.349 612.419 360.34 612.419 361.563V364.716H603.295" fill="url(#paint8_linear)"/>
<path d="M583.203 325.197H542.989C543.465 324.043 543.959 322.907 544.471 321.8H587.856C587.908 321.8 587.961 321.799 588.013 321.797C587.313 323.779 585.424 325.197 583.203 325.197Z" fill="#8CAADB"/>
<path d="M542.989 325.197H526.233C525.721 324.068 525.191 322.933 524.641 321.8H544.471C543.959 322.907 543.465 324.043 542.989 325.197" fill="#7397C8"/>
<path d="M508.416 295.184C507.633 294.135 506.836 293.091 506.024 292.053C505.625 291.544 505.231 291.041 504.837 290.541V227.509C504.837 225.217 506.349 223.279 508.429 222.636C508.421 222.769 508.416 222.903 508.416 223.036V295.184Z" fill="#93AFDB"/>
<path d="M526.233 325.197H509.936C507.121 325.197 504.837 322.916 504.837 320.099V290.541C505.231 291.041 505.625 291.544 506.024 292.053C506.836 293.091 507.633 294.135 508.416 295.184V315.627C508.416 319.029 511.187 321.8 514.588 321.8H524.641C525.191 322.933 525.721 324.068 526.233 325.197" fill="url(#paint9_linear)"/>
<path d="M587.856 319.652H545.503C546.983 316.696 548.617 313.944 550.449 311.451C550.449 311.451 552.803 311.123 556.497 310.603H575.168C576.048 310.603 576.763 309.888 576.763 309.008C576.763 308.516 576.54 308.077 576.189 307.784C580.393 307.172 584.584 306.552 588.304 305.984V319.628C588.156 319.644 588.007 319.652 587.856 319.652ZM534.791 252.703C535.207 249.375 535.763 245.793 536.36 242.015C537.92 240.947 539.821 239.876 542.104 238.936L541.287 236.952C539.605 237.644 538.117 238.401 536.807 239.177C537.641 233.88 538.503 228.241 539.133 222.411H565.692L544.431 225.496C543.013 225.701 542.029 227.017 542.236 228.435L545.445 250.547L534.791 252.703" fill="#8CAADB"/>
<path d="M545.503 319.652H523.583C522.812 318.121 522.009 316.589 521.175 315.057H533.644V303.892C535.525 302.213 538.277 300.271 542.104 298.695L541.287 296.711C538.069 298.036 535.559 299.596 533.644 301.083V295.556H527.228C535.381 293.291 543.531 289.928 550.667 286.521L552.575 299.671H549.909C549.029 299.671 548.315 300.384 548.315 301.265C548.315 302.145 549.029 302.86 549.909 302.86H553.569C554.043 303.327 554.692 303.608 555.388 303.608C555.512 303.608 555.639 303.599 555.764 303.581L560.733 302.86H575.168C576.048 302.86 576.763 302.145 576.763 301.265C576.763 301.011 576.704 300.771 576.597 300.557L588.304 298.857V305.984C584.584 306.552 580.393 307.172 576.189 307.784C575.913 307.553 575.556 307.415 575.168 307.415H549.909C549.029 307.415 548.315 308.128 548.315 309.008C548.315 309.888 549.029 310.603 549.909 310.603H556.497C552.803 311.123 550.449 311.451 550.449 311.451C548.617 313.944 546.983 316.696 545.503 319.652V319.652ZM531.497 312.911H519.983C519.825 312.631 519.668 312.355 519.508 312.076V297.703H531.497V302.936C530.475 303.917 529.736 304.795 529.237 305.452L526.301 302.175L524.703 303.609L529.547 309.008L530.285 307.715C530.295 307.696 530.669 307.056 531.497 306.08V312.911ZM517.361 308.437C515.296 305.039 513.077 301.663 510.709 298.332C512.879 298.26 515.105 298.041 517.361 297.703V308.437ZM533.644 252.936V244.133C534.403 243.456 535.304 242.736 536.36 242.015C535.763 245.793 535.207 249.375 534.791 252.703L545.445 250.547V250.548L533.644 252.936V252.936ZM533.644 241.325V235.797H529.816C532.533 231.748 535.184 227.312 537.2 222.411H539.133C538.503 228.241 537.641 233.88 536.807 239.177C535.609 239.888 534.559 240.615 533.644 241.325Z" fill="#7397C8"/>
<path d="M555.388 303.608C554.692 303.608 554.043 303.327 553.569 302.86H560.733L555.764 303.581C555.639 303.599 555.512 303.608 555.388 303.608V303.608ZM576.597 300.557C576.336 300.032 575.793 299.671 575.168 299.671H552.575L550.667 286.521C554.829 284.533 558.645 282.532 561.921 280.723H575.168C576.048 280.723 576.763 280.009 576.763 279.129C576.763 278.248 576.048 277.533 575.168 277.533H567.504C571.3 275.291 573.547 273.803 573.547 273.803C573.593 273.527 573.637 273.253 573.68 272.98H575.168C576.048 272.98 576.763 272.267 576.763 271.385C576.763 270.505 576.048 269.792 575.168 269.792H574.075C574.132 269.176 574.177 268.571 574.211 267.98L583.488 264.321C584.004 264.312 584.519 264.309 585.035 264.309C585.627 264.309 586.219 264.313 586.809 264.317C587.309 264.321 587.808 264.325 588.304 264.327V298.857L576.597 300.557V300.557ZM545.445 250.548V250.547L542.236 228.435C542.029 227.017 543.013 225.701 544.431 225.496L565.692 222.411H583.203C586.02 222.411 588.304 224.693 588.304 227.509V236.784C587.489 236.341 586.7 236.147 585.94 236.147C580.189 236.147 576.152 247.324 576.152 247.324L575.292 247.66C575.251 247.656 575.209 247.655 575.168 247.655H569.741C568.983 246.472 568.437 245.893 568.437 245.893L559.735 247.655H549.909C549.029 247.655 548.315 248.368 548.315 249.251C548.315 249.495 548.371 249.728 548.469 249.935L545.445 250.548V250.548ZM549.909 239.913C549.029 239.913 548.315 240.627 548.315 241.507C548.315 242.387 549.029 243.1 549.909 243.1H575.168C576.048 243.1 576.763 242.387 576.763 241.507C576.763 240.627 576.048 239.913 575.168 239.913H549.909Z" fill="#B8CEEE"/>
<path d="M574.211 267.98C574.656 260.139 573.069 254.472 571.448 250.844H575.168C576.048 250.844 576.763 250.131 576.763 249.251C576.763 248.411 576.115 247.723 575.292 247.66L576.152 247.324C576.152 247.324 580.189 236.147 585.94 236.147C586.7 236.147 587.489 236.341 588.304 236.784V264.327C587.808 264.325 587.309 264.321 586.809 264.317C586.219 264.313 585.627 264.309 585.035 264.309C584.519 264.309 584.004 264.312 583.488 264.321L574.211 267.98" fill="#7496CF"/>
<path d="M517.209 256.263C517.284 255.944 517.372 255.623 517.475 255.299H521.976L517.209 256.263" fill="#7397C8"/>
<path d="M510.709 298.332C510.661 298.264 510.612 298.195 510.564 298.127V223.036C510.564 222.824 510.58 222.615 510.612 222.411H537.2C535.184 227.312 532.533 231.748 529.816 235.797H517.361V255.299H517.475C517.372 255.623 517.284 255.944 517.209 256.263L521.976 255.299H533.644V252.936L545.445 250.548L548.469 249.935C548.725 250.472 549.275 250.844 549.909 250.844H571.448C573.069 254.472 574.656 260.139 574.211 267.98C574.177 268.571 574.132 269.176 574.075 269.792H549.909C549.029 269.792 548.315 270.505 548.315 271.385C548.315 272.267 549.029 272.98 549.909 272.98H573.68C573.637 273.253 573.593 273.527 573.547 273.803C573.547 273.803 571.3 275.291 567.504 277.533H549.909C549.029 277.533 548.315 278.248 548.315 279.129C548.315 280.009 549.029 280.723 549.909 280.723H561.921C558.645 282.532 554.829 284.533 550.667 286.521C543.531 289.928 535.381 293.291 527.228 295.556H517.361V297.703C515.105 298.041 512.879 298.26 510.709 298.332V298.332ZM517.361 265.676V285.177H533.644V274.013C535.525 272.335 538.277 270.392 542.104 268.815L541.287 266.832C538.069 268.156 535.559 269.716 533.644 271.204V265.676H517.361ZM531.497 283.031H519.508V267.823H531.497V273.056C530.475 274.039 529.736 274.916 529.237 275.573L526.301 272.296L524.703 273.729L529.547 279.129L530.285 277.835C530.295 277.816 530.669 277.176 531.497 276.2V283.031V283.031ZM569.741 247.655H559.735L568.437 245.893C568.437 245.893 568.983 246.472 569.741 247.655Z" fill="#93AFDB"/>
<path d="M523.583 319.652H514.588C512.368 319.652 510.564 317.847 510.564 315.627V298.127C510.612 298.195 510.661 298.264 510.709 298.332C513.077 301.663 515.296 305.039 517.361 308.437V315.057H521.175C522.009 316.589 522.812 318.121 523.583 319.652V319.652ZM519.983 312.911H519.508V312.076C519.668 312.355 519.825 312.631 519.983 312.911Z" fill="url(#paint10_linear)"/>
<path d="M531.497 253.151H519.508V250.84C521.689 247.015 524.991 242.764 528.347 237.944H531.497V243.177C530.475 244.16 529.736 245.037 529.237 245.693L526.301 242.417L524.703 243.851L529.547 249.251L530.285 247.956C530.295 247.937 530.669 247.297 531.497 246.321V253.151" fill="#7397C8"/>
<path d="M519.508 250.84V237.944H528.347C524.991 242.764 521.689 247.015 519.508 250.84Z" fill="#93AFDB"/>
<path d="M514.588 219.011C512.368 219.011 510.564 220.816 510.564 223.036V315.627C510.564 317.847 512.368 319.652 514.588 319.652H587.856C590.077 319.652 591.881 317.847 591.881 315.627V223.036C591.881 220.816 590.077 219.011 587.856 219.011H514.588ZM587.856 321.8H514.588C511.187 321.8 508.416 319.029 508.416 315.627V223.036C508.416 219.635 511.187 216.863 514.588 216.863H587.856C591.259 216.863 594.029 219.635 594.029 223.036V315.627C594.029 319.029 591.259 321.8 587.856 321.8Z" fill="#4F7EB7"/>
<path d="M521.976 255.299H517.475C517.92 253.876 518.621 252.392 519.508 250.84V253.151H531.497V246.321C532.023 245.703 532.731 244.949 533.644 244.133V252.936L521.976 255.299ZM531.497 243.177V237.944H528.347C528.836 237.24 529.327 236.525 529.816 235.797H533.644V241.325C532.821 241.964 532.109 242.589 531.497 243.177Z" fill="#335498"/>
<path d="M533.644 255.299H521.976L533.644 252.936V255.299ZM517.475 255.299H517.361V235.797H529.816C529.327 236.525 528.836 237.24 528.347 237.944H519.508V250.84C518.621 252.392 517.92 253.876 517.475 255.299" fill="#476AB1"/>
<path d="M536.36 242.015C536.507 241.08 536.656 240.135 536.807 239.177C538.117 238.401 539.605 237.644 541.287 236.952L542.104 238.936C539.821 239.876 537.92 240.947 536.36 242.015" fill="#80678A"/>
<path d="M529.547 249.251L524.703 243.851L526.301 242.417L529.237 245.693C529.736 245.037 530.475 244.16 531.497 243.177C532.109 242.589 532.821 241.964 533.644 241.325C534.559 240.615 535.609 239.888 536.807 239.177C536.656 240.135 536.507 241.08 536.36 242.015C535.304 242.736 534.403 243.456 533.644 244.133C532.731 244.949 532.023 245.703 531.497 246.321C530.669 247.297 530.295 247.937 530.285 247.956L529.547 249.251" fill="#6A5C7E"/>
<path d="M575.168 243.1H549.909C549.029 243.1 548.315 242.387 548.315 241.507C548.315 240.627 549.029 239.913 549.909 239.913H575.168C576.048 239.913 576.763 240.627 576.763 241.507C576.763 242.387 576.048 243.1 575.168 243.1Z" fill="#6F98DD"/>
<path d="M570.764 249.427C570.403 248.732 570.053 248.143 569.741 247.655H575.168C575.209 247.655 575.251 247.656 575.292 247.66L570.764 249.427Z" fill="#6F98DD"/>
<path d="M575.168 250.844H571.448C571.219 250.331 570.989 249.859 570.764 249.427L575.292 247.66C576.115 247.723 576.763 248.411 576.763 249.251C576.763 250.131 576.048 250.844 575.168 250.844" fill="#466FC0"/>
<path d="M548.469 249.935C548.371 249.728 548.315 249.495 548.315 249.251C548.315 248.368 549.029 247.655 549.909 247.655H559.735L548.469 249.935Z" fill="#6F98DD"/>
<path d="M571.448 250.844H549.909C549.275 250.844 548.725 250.472 548.469 249.935L559.735 247.655H569.741C570.053 248.143 570.403 248.732 570.764 249.427C570.989 249.859 571.219 250.331 571.448 250.844Z" fill="#5981CC"/>
<path d="M533.644 285.177H517.361V265.676H533.644V271.204C532.821 271.843 532.109 272.469 531.497 273.056V267.823H519.508V283.031H531.497V276.2C532.023 275.583 532.731 274.829 533.644 274.013V285.177Z" fill="#476AB1"/>
<path d="M529.547 279.129L524.703 273.729L526.301 272.296L529.237 275.573C529.736 274.916 530.475 274.039 531.497 273.056C532.109 272.469 532.821 271.843 533.644 271.204C535.559 269.716 538.069 268.156 541.287 266.832L542.104 268.815C538.277 270.392 535.525 272.335 533.644 274.013C532.731 274.829 532.023 275.583 531.497 276.2C530.669 277.176 530.295 277.816 530.285 277.835L529.547 279.129" fill="#876A8A"/>
<path d="M575.168 272.98H573.68C573.849 271.883 573.979 270.82 574.075 269.792H575.168C576.048 269.792 576.763 270.505 576.763 271.385C576.763 272.267 576.048 272.98 575.168 272.98Z" fill="#6F98DD"/>
<path d="M573.68 272.98H549.909C549.029 272.98 548.315 272.267 548.315 271.385C548.315 270.505 549.029 269.792 549.909 269.792H574.075C573.979 270.82 573.849 271.883 573.68 272.98Z" fill="#5981CC"/>
<path d="M575.168 280.723H561.921C564.023 279.563 565.901 278.48 567.504 277.533H575.168C576.048 277.533 576.763 278.248 576.763 279.129C576.763 280.009 576.048 280.723 575.168 280.723" fill="#6F98DD"/>
<path d="M561.921 280.723H549.909C549.029 280.723 548.315 280.009 548.315 279.129C548.315 278.248 549.029 277.533 549.909 277.533H567.504C565.901 278.48 564.023 279.563 561.921 280.723Z" fill="#5981CC"/>
<path d="M533.644 315.057H521.175C520.784 314.341 520.387 313.625 519.983 312.911H531.497V306.08C532.023 305.463 532.731 304.708 533.644 303.892V315.057ZM519.508 312.076C518.812 310.861 518.096 309.647 517.361 308.437V297.703C520.607 297.215 523.917 296.476 527.228 295.556H533.644V301.083C532.821 301.721 532.109 302.348 531.497 302.936V297.703H519.508V312.076" fill="#335498"/>
<path d="M517.361 297.703V295.556H527.228C523.917 296.476 520.607 297.215 517.361 297.703Z" fill="#476AB1"/>
<path d="M521.175 315.057H517.361V308.437C518.096 309.647 518.812 310.861 519.508 312.076V312.911H519.983C520.387 313.625 520.784 314.341 521.175 315.057" fill="url(#paint11_linear)"/>
<path d="M529.547 309.008L524.703 303.609L526.301 302.175L529.237 305.452C529.736 304.795 530.475 303.917 531.497 302.936C532.109 302.348 532.821 301.721 533.644 301.083C535.559 299.596 538.069 298.036 541.287 296.711L542.104 298.695C538.277 300.271 535.525 302.213 533.644 303.892C532.731 304.708 532.023 305.463 531.497 306.08C530.669 307.056 530.295 307.696 530.285 307.715L529.547 309.008" fill="#6A5C7E"/>
<path d="M575.168 302.86H560.733L576.597 300.557C576.704 300.771 576.763 301.011 576.763 301.265C576.763 302.145 576.048 302.86 575.168 302.86V302.86ZM553.569 302.86H549.909C549.029 302.86 548.315 302.145 548.315 301.265C548.315 300.384 549.029 299.671 549.909 299.671H552.575L552.824 301.385C552.908 301.968 553.18 302.476 553.569 302.86" fill="#456FBA"/>
<path d="M560.733 302.86H553.569C553.18 302.476 552.908 301.968 552.824 301.385L552.575 299.671H575.168C575.793 299.671 576.336 300.032 576.597 300.557L560.733 302.86Z" fill="#6F98DD"/>
<path d="M575.168 310.603H556.497C561.46 309.904 568.844 308.856 576.189 307.784C576.54 308.077 576.763 308.516 576.763 309.008C576.763 309.888 576.048 310.603 575.168 310.603Z" fill="#557DCC"/>
<path d="M556.497 310.603H549.909C549.029 310.603 548.315 309.888 548.315 309.008C548.315 308.128 549.029 307.415 549.909 307.415H575.168C575.556 307.415 575.913 307.553 576.189 307.784C568.844 308.856 561.46 309.904 556.497 310.603Z" fill="#456FBA"/>
<path d="M840.585 183.608H767.319C764.504 183.608 762.22 181.325 762.22 178.509V177.836C763.4 175.052 764.009 173.431 764.009 173.431C763.553 171.856 762.944 170.428 762.22 169.135V167.836L764.732 162.159C764.732 162.159 771.023 159.555 775.603 155.364C775.941 155.464 776.299 155.519 776.669 155.519C778.745 155.519 780.427 153.836 780.427 151.76C780.427 151.38 780.371 151.012 780.265 150.665C783.131 148.413 785.285 145.967 784.228 144.991C783.357 144.187 782.636 143.937 782.077 143.937C781.163 143.937 780.681 144.604 780.681 144.604C780.681 144.604 783.367 140.081 780.681 138.637C780.044 138.295 779.477 138.16 778.98 138.16C778.944 138.16 778.911 138.161 778.876 138.163C779.816 137.48 780.427 136.372 780.427 135.121C780.427 133.047 778.745 131.364 776.669 131.364C774.685 131.364 773.06 132.903 772.923 134.853C772.729 134.904 772.547 134.959 772.377 135.013C772.015 134.779 771.659 134.572 771.311 134.391C771.344 133.444 771.169 132.213 770.031 132.213C769.497 132.213 768.752 132.484 767.719 133.179C767.175 133.096 766.699 133.068 766.307 133.068C765.537 133.068 765.089 133.175 765.089 133.175C765.089 133.175 777.908 124.531 779.712 119.997C781.345 120.747 783.164 121.165 785.08 121.165C792.195 121.165 797.961 115.399 797.961 108.284C797.961 108.041 797.955 107.8 797.941 107.561L804.939 108.284C808.697 100.68 804.939 93.2547 797.067 91.2867L793.157 98.2494C790.948 96.4681 788.139 95.4014 785.08 95.4014C777.965 95.4014 772.196 101.169 772.196 108.284C772.196 112.079 773.839 115.491 776.449 117.848C772.864 118.7 767.135 121.9 762.22 125.467V85.9187C762.22 83.1027 764.504 80.82 767.319 80.82H840.585C843.403 80.82 845.687 83.1027 845.687 85.9187V178.509C845.687 181.325 843.403 183.608 840.585 183.608V183.608ZM799.392 164.911C797.317 164.911 795.636 166.593 795.636 168.669C795.636 170.744 797.317 172.425 799.392 172.425H829.451C831.527 172.425 833.208 170.744 833.208 168.669C833.208 166.593 831.527 164.911 829.451 164.911H799.392ZM776.669 164.911C774.595 164.911 772.912 166.593 772.912 168.669C772.912 170.744 774.595 172.425 776.669 172.425C778.745 172.425 780.427 170.744 780.427 168.669C780.427 166.593 778.745 164.911 776.669 164.911ZM799.392 148.003C797.317 148.003 795.636 149.685 795.636 151.76C795.636 153.836 797.317 155.519 799.392 155.519H829.451C831.527 155.519 833.208 153.836 833.208 151.76C833.208 149.685 831.527 148.003 829.451 148.003H799.392ZM799.392 131.364C797.317 131.364 795.636 133.047 795.636 135.121C795.636 137.196 797.317 138.879 799.392 138.879H829.451C831.527 138.879 833.208 137.196 833.208 135.121C833.208 133.047 831.527 131.364 829.451 131.364H799.392ZM776.821 139.175C776.795 139.14 776.767 139.107 776.74 139.072C776.771 139.009 776.801 138.943 776.832 138.875C776.945 138.871 777.057 138.86 777.168 138.845C777.037 138.953 776.923 139.067 776.821 139.175Z" fill="#C2D7F4"/>
<path d="M762.22 167.836V146.261C763.965 145.611 765.761 144.123 765.761 144.123C765.761 144.123 761.588 150.475 764.823 152.112C765.243 152.324 765.692 152.416 766.156 152.416C769.272 152.416 773.065 148.261 773.065 148.261C773.065 148.261 768.892 154.036 771.292 155.096C771.424 155.153 771.587 155.181 771.777 155.181C772.348 155.181 773.164 154.933 774.111 154.512C774.531 154.903 775.039 155.197 775.603 155.364C771.023 159.555 764.732 162.159 764.732 162.159L762.22 167.836V167.836ZM776.405 139.711C776.488 139.567 776.609 139.345 776.74 139.072C776.767 139.107 776.795 139.14 776.821 139.175C776.631 139.381 776.492 139.577 776.405 139.711ZM762.22 139.259V125.467C767.135 121.9 772.864 118.7 776.449 117.848C777.416 118.72 778.515 119.448 779.712 119.997C777.908 124.531 765.089 133.175 765.089 133.175C765.089 133.175 765.537 133.068 766.307 133.068C766.699 133.068 767.175 133.096 767.719 133.179C767.556 133.288 767.388 133.407 767.212 133.537C767.212 133.537 764.497 136.297 762.22 139.259V139.259ZM771.188 135.461C771.188 135.461 771.289 134.981 771.311 134.391C771.659 134.572 772.015 134.779 772.377 135.013C771.673 135.237 771.188 135.461 771.188 135.461Z" fill="#5C83B7"/>
<path d="M771.777 155.181C771.587 155.181 771.424 155.153 771.292 155.096C768.892 154.036 773.065 148.261 773.065 148.261C773.065 148.261 769.272 152.416 766.156 152.416C765.692 152.416 765.243 152.324 764.823 152.112C761.588 150.475 765.761 144.123 765.761 144.123C765.761 144.123 763.965 145.611 762.22 146.261V139.259C764.497 136.297 767.212 133.537 767.212 133.537C767.388 133.407 767.556 133.288 767.719 133.179C768.752 132.484 769.497 132.213 770.031 132.213C771.169 132.213 771.344 133.444 771.311 134.391C771.289 134.981 771.188 135.461 771.188 135.461C771.188 135.461 771.673 135.237 772.377 135.013C772.547 134.959 772.729 134.904 772.923 134.853C772.916 134.941 772.912 135.031 772.912 135.121C772.912 137.196 774.595 138.879 776.669 138.879C776.724 138.879 776.777 138.877 776.832 138.875C776.801 138.943 776.771 139.009 776.74 139.072C776.609 139.345 776.488 139.567 776.405 139.711C776.492 139.577 776.631 139.381 776.821 139.175C776.923 139.067 777.037 138.953 777.168 138.845C777.8 138.761 778.384 138.52 778.876 138.163C778.911 138.161 778.944 138.16 778.98 138.16C779.477 138.16 780.044 138.295 780.681 138.637C783.367 140.081 780.681 144.604 780.681 144.604C780.681 144.604 781.163 143.937 782.077 143.937C782.636 143.937 783.357 144.187 784.228 144.991C785.285 145.967 783.131 148.413 780.265 150.665C779.796 149.124 778.364 148.003 776.669 148.003C774.595 148.003 772.912 149.685 772.912 151.76C772.912 152.847 773.373 153.825 774.111 154.512C773.164 154.933 772.348 155.181 771.777 155.181" fill="#7496CF"/>
<path d="M762.22 177.836V169.135C762.944 170.428 763.553 171.856 764.009 173.431C764.009 173.431 763.4 175.052 762.22 177.836" fill="#8CAADB"/>
<path d="M773.761 76.0374C771.541 76.0374 769.736 77.8441 769.736 80.0627V172.653C769.736 174.872 771.541 176.679 773.761 176.679H847.028C849.249 176.679 851.053 174.872 851.053 172.653V80.0627C851.053 77.8441 849.249 76.0374 847.028 76.0374H773.761ZM847.028 178.825H773.761C770.359 178.825 767.588 176.056 767.588 172.653V80.0627C767.588 76.6587 770.359 73.8894 773.761 73.8894H847.028C850.431 73.8894 853.2 76.6587 853.2 80.0627V172.653C853.2 176.056 850.431 178.825 847.028 178.825Z" fill="#4F7EB7"/>
<path d="M785.08 121.165C783.164 121.165 781.345 120.747 779.712 119.997C779.964 119.365 780.001 118.813 779.76 118.376C779.477 117.86 778.889 117.628 778.072 117.628C777.601 117.628 777.057 117.704 776.449 117.848C773.839 115.491 772.196 112.079 772.196 108.284C772.196 101.169 777.965 95.4014 785.08 95.4014C788.139 95.4014 790.948 96.4681 793.157 98.2494L788.477 106.584L797.941 107.561C797.955 107.8 797.961 108.041 797.961 108.284C797.961 115.399 792.195 121.165 785.08 121.165" fill="#90B1E1"/>
<path d="M779.712 119.997C778.515 119.448 777.416 118.72 776.449 117.848C777.057 117.704 777.601 117.628 778.072 117.628C778.889 117.628 779.477 117.86 779.76 118.376C780.001 118.813 779.964 119.365 779.712 119.997Z" fill="#446CA9"/>
<path d="M804.939 108.284L797.941 107.561C797.733 103.8 795.912 100.469 793.157 98.2494L797.067 91.2867C804.939 93.2547 808.697 100.68 804.939 108.284Z" fill="#A482A0"/>
<path d="M797.941 107.561L788.477 106.584L793.157 98.2494C795.912 100.469 797.733 103.8 797.941 107.561" fill="#8C7D9C"/>
<path d="M776.832 138.875C777.341 137.744 777.877 135.957 776.717 135.076C776.22 134.699 775.568 134.563 774.887 134.563C774.22 134.563 773.527 134.692 772.923 134.853C773.06 132.903 774.685 131.364 776.669 131.364C778.745 131.364 780.427 133.047 780.427 135.121C780.427 136.372 779.816 137.48 778.876 138.163C778.156 138.189 777.587 138.497 777.168 138.845C777.057 138.86 776.945 138.871 776.832 138.875" fill="#9BBBEB"/>
<path d="M776.669 138.879C774.595 138.879 772.912 137.196 772.912 135.121C772.912 135.031 772.916 134.941 772.923 134.853C773.527 134.692 774.22 134.563 774.887 134.563C775.568 134.563 776.22 134.699 776.717 135.076C777.877 135.957 777.341 137.744 776.832 138.875C776.777 138.877 776.724 138.879 776.669 138.879V138.879ZM777.168 138.845C777.587 138.497 778.156 138.189 778.876 138.163C778.384 138.52 777.8 138.761 777.168 138.845Z" fill="#5D82C7"/>
<path d="M776.669 155.519C776.299 155.519 775.941 155.464 775.603 155.364C776.769 154.297 777.824 153.128 778.636 151.871C779.192 151.483 779.741 151.077 780.265 150.665C780.371 151.012 780.427 151.38 780.427 151.76C780.427 153.836 778.745 155.519 776.669 155.519" fill="#9BBBEB"/>
<path d="M775.603 155.364C775.039 155.197 774.531 154.903 774.111 154.512C775.463 153.911 777.083 152.956 778.636 151.871C777.824 153.128 776.769 154.297 775.603 155.364Z" fill="#4A72B0"/>
<path d="M774.111 154.512C773.373 153.825 772.912 152.847 772.912 151.76C772.912 149.685 774.595 148.003 776.669 148.003C778.364 148.003 779.796 149.124 780.265 150.665C779.741 151.077 779.192 151.483 778.636 151.871C777.083 152.956 775.463 153.911 774.111 154.512" fill="#5D82C7"/>
<path d="M829.451 138.879H799.392C797.317 138.879 795.636 137.196 795.636 135.121C795.636 133.047 797.317 131.364 799.392 131.364H829.451C831.527 131.364 833.208 133.047 833.208 135.121C833.208 137.196 831.527 138.879 829.451 138.879Z" fill="#9BBBEB"/>
<path d="M829.451 155.519H799.392C797.317 155.519 795.636 153.836 795.636 151.76C795.636 149.685 797.317 148.003 799.392 148.003H829.451C831.527 148.003 833.208 149.685 833.208 151.76C833.208 153.836 831.527 155.519 829.451 155.519Z" fill="#9BBBEB"/>
<path d="M776.669 172.425C774.595 172.425 772.912 170.744 772.912 168.669C772.912 166.593 774.595 164.911 776.669 164.911C778.745 164.911 780.427 166.593 780.427 168.669C780.427 170.744 778.745 172.425 776.669 172.425Z" fill="#9BBBEB"/>
<path d="M829.451 172.425H799.392C797.317 172.425 795.636 170.744 795.636 168.669C795.636 166.593 797.317 164.911 799.392 164.911H829.451C831.527 164.911 833.208 166.593 833.208 168.669C833.208 170.744 831.527 172.425 829.451 172.425Z" fill="#9BBBEB"/>
<path d="M213.941 153.445H140.673C137.857 153.445 135.575 151.163 135.575 148.345V38.5801C135.575 35.7641 137.857 33.4801 140.673 33.4801H213.941C216.757 33.4801 219.04 35.7641 219.04 38.5801V148.345C219.04 151.163 216.757 153.445 213.941 153.445Z" fill="#C2D7F4"/>
<path d="M136.023 29.9027C133.803 29.9027 131.997 31.7094 131.997 33.9281V143.695C131.997 145.915 133.803 147.72 136.023 147.72H209.289C211.508 147.72 213.315 145.915 213.315 143.695V33.9281C213.315 31.7094 211.508 29.9027 209.289 29.9027H136.023ZM209.289 149.867H136.023C132.619 149.867 129.849 147.099 129.849 143.695V33.9281C129.849 30.5241 132.619 27.7561 136.023 27.7561H209.289C212.693 27.7561 215.461 30.5241 215.461 33.9281V143.695C215.461 147.099 212.693 149.867 209.289 149.867Z" fill="#4F7EB7"/>
<path d="M173.377 82.8574L172.329 83.788C171.664 84.3787 170.647 84.3187 170.056 83.6534L159.307 71.5507L162.763 68.4814L173.511 80.584C174.103 81.2494 174.041 82.2667 173.377 82.8574" fill="#7CA6D8"/>
<path d="M155.564 70.0734C150.929 70.0734 147.149 66.3147 147.149 61.6601C147.149 57.0054 150.929 53.2467 155.564 53.2467C160.217 53.2467 163.977 57.0054 163.977 61.6601C163.977 66.3147 160.217 70.0734 155.564 70.0734ZM155.564 49.3147C148.757 49.3147 143.219 54.8334 143.219 61.6601C143.219 68.4881 148.757 74.0054 155.564 74.0054C162.391 74.0054 167.909 68.4881 167.909 61.6601C167.909 54.8334 162.391 49.3147 155.564 49.3147Z" fill="#7CA6D8"/>
<path d="M205.579 56.1134H186.076C184.841 56.1134 183.84 55.1121 183.84 53.8774C183.84 52.6414 184.841 51.6401 186.076 51.6401H205.579C206.813 51.6401 207.815 52.6414 207.815 53.8774C207.815 55.1121 206.813 56.1134 205.579 56.1134Z" fill="#9ABCED"/>
<path d="M205.579 67.7441H186.076C184.841 67.7441 183.84 66.7427 183.84 65.5067C183.84 64.2721 184.841 63.2707 186.076 63.2707H205.579C206.813 63.2707 207.815 64.2721 207.815 65.5067C207.815 66.7427 206.813 67.7441 205.579 67.7441Z" fill="#9ABCED"/>
<path d="M205.579 78.4787H186.076C184.841 78.4787 183.84 77.4774 183.84 76.2427C183.84 75.0067 184.841 74.0054 186.076 74.0054H205.579C206.813 74.0054 207.815 75.0067 207.815 76.2427C207.815 77.4774 206.813 78.4787 205.579 78.4787Z" fill="#9ABCED"/>
<path d="M181.291 108.357H151.232C149.824 108.357 148.683 107.216 148.683 105.808C148.683 104.4 149.824 103.259 151.232 103.259H181.291C182.697 103.259 183.84 104.4 183.84 105.808C183.84 107.216 182.697 108.357 181.291 108.357Z" fill="#9ABCED"/>
<path d="M181.291 124.327H151.232C149.824 124.327 148.683 123.185 148.683 121.777C148.683 120.368 149.824 119.227 151.232 119.227H181.291C182.697 119.227 183.84 120.368 183.84 121.777C183.84 123.185 182.697 124.327 181.291 124.327Z" fill="#9ABCED"/>
<path d="M181.291 140.295H151.232C149.824 140.295 148.683 139.153 148.683 137.745C148.683 136.337 149.824 135.195 151.232 135.195H181.291C182.697 135.195 183.84 136.337 183.84 137.745C183.84 139.153 182.697 140.295 181.291 140.295Z" fill="#9ABCED"/>
<path d="M204.84 105.808C204.84 108.068 203.008 109.901 200.748 109.901C198.487 109.901 196.655 108.068 196.655 105.808C196.655 103.548 198.487 101.716 200.748 101.716C203.008 101.716 204.84 103.548 204.84 105.808Z" fill="#9ABCED"/>
<path d="M204.84 121.777C204.84 124.037 203.008 125.869 200.748 125.869C198.487 125.869 196.655 124.037 196.655 121.777C196.655 119.516 198.487 117.684 200.748 117.684C203.008 117.684 204.84 119.516 204.84 121.777Z" fill="#9ABCED"/>
<path d="M204.84 137.745C204.84 140.005 203.008 141.837 200.748 141.837C198.487 141.837 196.655 140.005 196.655 137.745C196.655 135.484 198.487 133.652 200.748 133.652C203.008 133.652 204.84 135.484 204.84 137.745Z" fill="#9ABCED"/>
<path d="M429.76 150.104C429.2 148.943 428.887 147.641 428.887 146.267V57.1654C428.887 54.1214 430.421 51.4361 432.76 49.8427C432.568 50.6121 432.467 51.4174 432.467 52.2454V77.9521C432.308 81.0694 432.307 84.2747 432.467 87.5627V141.347C432.467 143.241 433 145.015 433.925 146.523C432.711 147.84 431.319 149.029 429.76 150.104" fill="#C2D7F4"/>
<path d="M571.932 155.123H517.947C518.068 153.852 518.183 152.569 518.292 151.276H576.584C577.607 151.276 578.593 151.121 579.521 150.833C577.972 153.403 575.152 155.123 571.932 155.123ZM513.617 155.123H470.34C470.688 153.855 471.017 152.571 471.329 151.276H513.969C513.859 152.571 513.741 153.849 513.617 155.123ZM465.867 155.123H437.744C434.227 155.123 431.189 153.073 429.76 150.104C431.319 149.029 432.711 147.84 433.925 146.523C435.672 149.372 438.816 151.276 442.396 151.276H466.892C466.569 152.569 466.225 153.856 465.867 155.123V155.123ZM432.467 87.5627C432.307 84.2747 432.308 81.0694 432.467 77.952V87.5627Z" fill="#AEC6ED"/>
<path d="M517.947 155.123H513.617C513.741 153.849 513.859 152.571 513.969 151.276H518.292C518.183 152.569 518.068 153.852 517.947 155.123Z" fill="#C2D7F4"/>
<path d="M470.34 155.123H465.867C466.225 153.856 466.569 152.569 466.892 151.276H471.329C471.017 152.571 470.688 153.855 470.34 155.123Z" fill="#C2D7F4"/>
<path d="M435.396 144.748C434.893 143.72 434.612 142.565 434.612 141.347V104.575C435.376 108.411 436.34 112.345 437.508 116.369C441.225 129.168 440.18 138.296 435.396 144.748V144.748ZM434.612 62.7267V52.2454C434.612 50.9241 434.943 49.6787 435.525 48.5881C436.235 48.4054 436.977 48.3094 437.744 48.3094H439.667C437.527 52.8174 435.831 57.6281 434.612 62.7267" fill="#C2D7F4"/>
<path d="M576.584 149.129H518.467C518.593 147.507 518.712 145.867 518.821 144.208H547.509C549.288 144.208 550.731 142.767 550.731 140.988C550.731 139.209 549.288 137.768 547.509 137.768H519.195C519.369 134.327 519.507 130.807 519.608 127.211H523.423C524.941 127.211 526.173 125.98 526.173 124.46V86.4854C526.173 84.9654 524.941 83.7347 523.423 83.7347H519.385C519.365 79.0387 519.471 74.4747 519.701 70.0467H522.283C524.431 70.0467 526.173 68.3041 526.173 66.1561C526.173 64.0067 524.431 62.2641 522.283 62.2641H520.248C520.679 57.4401 521.268 52.7854 522.019 48.3094H571.932C576.823 48.3094 580.788 52.2734 580.788 57.1654V94.0254C579.717 97.7481 578.409 102.307 574.655 105.656C568.308 111.319 564.936 117.72 573.895 134.037C577.597 140.783 579.088 145.088 579.827 148.421C578.839 148.876 577.741 149.129 576.584 149.129V149.129ZM540.084 118.623C538.751 118.623 537.669 119.704 537.669 121.039C537.669 122.372 538.751 123.453 540.084 123.453H563.209C564.543 123.453 565.625 122.372 565.625 121.039C565.625 119.704 564.543 118.623 563.209 118.623H540.084ZM540.084 107.709C538.751 107.709 537.669 108.791 537.669 110.124C537.669 111.459 538.751 112.54 540.084 112.54H563.209C564.543 112.54 565.625 111.459 565.625 110.124C565.625 108.791 564.543 107.709 563.209 107.709H540.084ZM540.084 96.7947C538.751 96.7947 537.669 97.8761 537.669 99.2107C537.669 100.544 538.751 101.625 540.084 101.625H563.209C564.543 101.625 565.625 100.544 565.625 99.2107C565.625 97.8761 564.543 96.7947 563.209 96.7947H540.084ZM540.084 85.8814C538.751 85.8814 537.669 86.9627 537.669 88.2974C537.669 89.6307 538.751 90.7121 540.084 90.7121H563.209C564.543 90.7121 565.625 89.6307 565.625 88.2974C565.625 86.9627 564.543 85.8814 563.209 85.8814H540.084ZM539.727 62.2641C537.577 62.2641 535.835 64.0067 535.835 66.1561C535.835 68.3041 537.577 70.0467 539.727 70.0467H561.733C563.883 70.0467 565.625 68.3041 565.625 66.1561C565.625 64.0067 563.883 62.2641 561.733 62.2641H539.727ZM514.148 149.129H471.827C472.188 147.508 472.521 145.868 472.825 144.208H514.509C514.397 145.868 514.277 147.503 514.148 149.129ZM467.408 149.129H442.396C439.323 149.129 436.66 147.34 435.396 144.748C440.18 138.296 441.225 129.168 437.508 116.369C436.34 112.345 435.376 108.411 434.612 104.575V62.7267C435.831 57.6281 437.527 52.8174 439.667 48.3094H466.5C466.507 52.8334 466.592 57.4827 466.763 62.2641H447.941C445.793 62.2641 444.051 64.0067 444.051 66.1561C444.051 68.3041 445.793 70.0467 447.941 70.0467H467.113C467.355 74.5014 467.669 79.0654 468.063 83.7347H446.801C445.281 83.7347 444.051 84.9654 444.051 86.4854V124.46C444.051 125.98 445.281 127.211 446.801 127.211H470.547C470.328 130.809 469.976 134.328 469.5 137.768H461.897C460.119 137.768 458.677 139.209 458.677 140.988C458.677 142.767 460.119 144.208 461.897 144.208H468.443C468.127 145.872 467.783 147.507 467.408 149.129V149.129ZM514.889 137.768H473.847C474.308 134.325 474.648 130.807 474.859 127.211H515.308C515.205 130.801 515.067 134.32 514.889 137.768ZM515.087 83.7347H472.388C471.996 79.0627 471.684 74.5014 471.448 70.0467H515.395C515.168 74.4801 515.065 79.0441 515.087 83.7347ZM515.929 62.2641H471.108C470.944 57.4841 470.868 52.8307 470.872 48.3094H517.657C516.925 52.7947 516.349 57.4481 515.929 62.2641Z" fill="#AEC6ED"/>
<path d="M518.467 149.129H514.148C514.277 147.503 514.397 145.868 514.509 144.208H518.821C518.712 145.867 518.593 147.507 518.467 149.129ZM519.195 137.768H514.889C515.067 134.32 515.205 130.801 515.308 127.211H519.608C519.507 130.807 519.369 134.327 519.195 137.768ZM519.385 83.7347H515.087C515.065 79.0441 515.168 74.4801 515.395 70.0467H519.701C519.471 74.4747 519.365 79.0387 519.385 83.7347V83.7347ZM520.248 62.2641H515.929C516.349 57.4481 516.925 52.7947 517.657 48.3094H522.019C521.268 52.7854 520.679 57.4401 520.248 62.2641Z" fill="#C2D7F4"/>
<path d="M471.827 149.129H467.408C467.783 147.507 468.127 145.872 468.443 144.208H472.825C472.521 145.868 472.188 147.508 471.827 149.129V149.129ZM473.847 137.768H469.5C469.976 134.328 470.328 130.809 470.547 127.211H474.859C474.648 130.807 474.308 134.325 473.847 137.768ZM472.388 83.7347H468.063C467.669 79.0654 467.355 74.5014 467.113 70.0467H471.448C471.684 74.5014 471.996 79.0627 472.388 83.7347V83.7347ZM471.108 62.2641H466.763C466.592 57.4827 466.507 52.8334 466.5 48.3094H470.872C470.868 52.8307 470.944 57.4841 471.108 62.2641Z" fill="#C2D7F4"/>
<path d="M579.827 148.421C579.088 145.088 577.597 140.783 573.895 134.037C564.936 117.72 568.308 111.319 574.655 105.656C578.409 102.307 579.717 97.7481 580.788 94.0254V146.267C580.788 146.86 580.729 147.44 580.619 148C580.364 148.155 580.099 148.296 579.827 148.421Z" fill="#476899"/>
<path d="M442.396 44.4627C438.104 44.4627 434.612 47.9534 434.612 52.2454V141.347C434.612 145.637 438.104 149.129 442.396 149.129H576.584C580.876 149.129 584.367 145.637 584.367 141.347V52.2454C584.367 47.9534 580.876 44.4627 576.584 44.4627H442.396V44.4627ZM576.584 151.276H442.396C436.92 151.276 432.467 146.821 432.467 141.347V52.2454C432.467 46.7694 436.92 42.3147 442.396 42.3147H576.584C582.059 42.3147 586.515 46.7694 586.515 52.2454V141.347C586.515 146.821 582.059 151.276 576.584 151.276" fill="#4F7EB7"/>
<path d="M522.283 70.0468H519.701C519.839 67.4041 520.021 64.8107 520.248 62.2641H522.283C524.431 62.2641 526.173 64.0067 526.173 66.1561C526.173 68.3041 524.431 70.0468 522.283 70.0468V70.0468ZM515.395 70.0468H471.448C471.309 67.4134 471.196 64.8227 471.108 62.2641H515.929C515.708 64.8121 515.529 67.4068 515.395 70.0468ZM467.113 70.0468H447.941C445.793 70.0468 444.051 68.3041 444.051 66.1561C444.051 64.0067 445.793 62.2641 447.941 62.2641H466.763C466.855 64.8214 466.972 67.4148 467.113 70.0468Z" fill="#8BACE4"/>
<path d="M519.701 70.0468H515.395C515.529 67.4068 515.708 64.8121 515.929 62.2641H520.248C520.021 64.8107 519.839 67.4041 519.701 70.0468Z" fill="#9BBBEB"/>
<path d="M471.448 70.0468H467.113C466.972 67.4148 466.855 64.8214 466.763 62.2641H471.108C471.196 64.8227 471.309 67.4134 471.448 70.0468Z" fill="#9BBBEB"/>
<path d="M523.423 127.211H519.608C519.929 115.835 519.891 103.671 519.503 90.6481C519.433 88.3121 519.395 86.0081 519.385 83.7347H523.423C524.941 83.7347 526.173 84.9654 526.173 86.4854V124.46C526.173 125.98 524.941 127.211 523.423 127.211ZM515.308 127.211H474.859C475.373 118.428 475.117 109.192 473.985 99.5374C473.351 94.1361 472.82 88.8681 472.388 83.7347H515.087C515.097 86.0507 515.137 88.3974 515.208 90.7774C515.591 103.681 515.635 115.808 515.308 127.211ZM470.547 127.211H446.801C445.281 127.211 444.051 125.98 444.051 124.46V86.4854C444.051 84.9654 445.281 83.7347 446.801 83.7347H468.063C468.509 89.0267 469.056 94.4574 469.712 100.032C470.827 109.521 471.068 118.595 470.547 127.211Z" fill="#6F95D3"/>
<path d="M519.608 127.211H515.308C515.635 115.808 515.591 103.681 515.208 90.7774C515.137 88.3974 515.097 86.0507 515.087 83.7347H519.385C519.395 86.0081 519.433 88.3121 519.503 90.6481C519.891 103.671 519.929 115.835 519.608 127.211Z" fill="#7BA2DA"/>
<path d="M474.859 127.211H470.547C471.068 118.595 470.827 109.521 469.712 100.032C469.056 94.4574 468.509 89.0267 468.063 83.7347H472.388C472.82 88.8681 473.351 94.1361 473.985 99.5374C475.117 109.192 475.373 118.428 474.859 127.211Z" fill="#7BA2DA"/>
<path d="M561.733 70.0468H539.727C537.577 70.0468 535.835 68.3041 535.835 66.1561C535.835 64.0067 537.577 62.2641 539.727 62.2641H561.733C563.883 62.2641 565.625 64.0067 565.625 66.1561C565.625 68.3041 563.883 70.0468 561.733 70.0468Z" fill="#8BACE4"/>
<path d="M563.209 90.7121H540.084C538.751 90.7121 537.669 89.6307 537.669 88.2974C537.669 86.9627 538.751 85.8814 540.084 85.8814H563.209C564.543 85.8814 565.625 86.9627 565.625 88.2974C565.625 89.6307 564.543 90.7121 563.209 90.7121Z" fill="#8BACE4"/>
<path d="M563.209 101.625H540.084C538.751 101.625 537.669 100.544 537.669 99.2107C537.669 97.8761 538.751 96.7947 540.084 96.7947H563.209C564.543 96.7947 565.625 97.8761 565.625 99.2107C565.625 100.544 564.543 101.625 563.209 101.625Z" fill="#8BACE4"/>
<path d="M563.209 112.54H540.084C538.751 112.54 537.669 111.459 537.669 110.124C537.669 108.791 538.751 107.709 540.084 107.709H563.209C564.543 107.709 565.625 108.791 565.625 110.124C565.625 111.459 564.543 112.54 563.209 112.54Z" fill="#8BACE4"/>
<path d="M563.209 123.453H540.084C538.751 123.453 537.669 122.372 537.669 121.039C537.669 119.704 538.751 118.623 540.084 118.623H563.209C564.543 118.623 565.625 119.704 565.625 121.039C565.625 122.372 564.543 123.453 563.209 123.453Z" fill="#8BACE4"/>
<path d="M547.509 144.208H518.821C518.96 142.092 519.085 139.945 519.195 137.768H547.509C549.288 137.768 550.731 139.209 550.731 140.988C550.731 142.767 549.288 144.208 547.509 144.208ZM514.509 144.208H472.825C473.213 142.092 473.555 139.945 473.847 137.768H514.889C514.777 139.939 514.651 142.093 514.509 144.208V144.208ZM468.443 144.208H461.897C460.119 144.208 458.677 142.767 458.677 140.988C458.677 139.209 460.119 137.768 461.897 137.768H469.5C469.197 139.947 468.844 142.095 468.443 144.208Z" fill="#8BACE4"/>
<path d="M518.821 144.208H514.509C514.651 142.093 514.777 139.939 514.889 137.768H519.195C519.085 139.945 518.96 142.092 518.821 144.208Z" fill="#9BBBEB"/>
<path d="M472.825 144.208H468.443C468.844 142.095 469.197 139.947 469.5 137.768H473.847C473.555 139.945 473.213 142.092 472.825 144.208" fill="#9BBBEB"/>
<path d="M122.429 264.435H14.2396C10.2869 264.435 7.08331 261.231 7.08331 257.277V180.343C7.08331 176.391 10.2869 173.187 14.2396 173.187H141.272C145.224 173.187 148.428 176.391 148.428 180.343V205.397C142.3 213.723 137.353 221.964 133.433 230.087C131.181 227.564 128.609 225.275 125.923 224.015C122.44 222.385 120.017 221.795 118.397 221.795C116.152 221.795 115.447 222.929 115.596 224.015C115.819 225.647 122.672 229.073 126.003 234.376H102.445C101.407 234.376 100.565 235.217 100.565 236.255C100.565 237.292 101.407 238.133 102.445 238.133H121.741C121.628 239.419 121.999 240.776 122.128 241.197C122.103 241.221 122.077 241.245 122.052 241.268C121.263 240.863 120.597 240.688 120.039 240.688C116.665 240.688 117.152 247.057 117.169 247.268C117.168 247.269 117.167 247.272 117.165 247.275C111.901 248.313 116.709 257.045 122.256 260.663C122.484 260.943 122.715 261.221 122.949 261.497C122.763 262.48 122.589 263.459 122.429 264.435V264.435ZM80.5306 247.796C79.4933 247.796 78.652 248.636 78.652 249.673C78.652 250.711 79.4933 251.552 80.5306 251.552H105.759C106.796 251.552 107.637 250.711 107.637 249.673C107.637 248.636 106.796 247.796 105.759 247.796H80.5306ZM44.389 247.796C43.3516 247.796 42.5104 248.636 42.5104 249.673C42.5104 250.711 43.3516 251.552 44.389 251.552H69.616C70.6546 251.552 71.496 250.711 71.496 249.673C71.496 248.636 70.6546 247.796 69.616 247.796H44.389V247.796ZM66.3026 234.376C65.2653 234.376 64.424 235.217 64.424 236.255C64.424 237.292 65.2653 238.133 66.3026 238.133H91.5293C92.568 238.133 93.4093 237.292 93.4093 236.255C93.4093 235.217 92.568 234.376 91.5293 234.376H66.3026ZM27.8396 234.376C26.8021 234.376 25.9609 235.217 25.9609 236.255C25.9609 237.292 26.8021 238.133 27.8396 238.133H53.0672C54.1041 238.133 54.9453 237.292 54.9453 236.255C54.9453 235.217 54.1041 234.376 53.0672 234.376H27.8396ZM86.4306 185.311C85.8373 185.311 85.3573 185.792 85.3573 186.385V221.731H127.224C127.817 221.731 128.297 221.251 128.297 220.657C128.297 220.064 127.817 219.583 127.224 219.583H121.499V207.477H116.132V219.583H110.585V195.372H105.217V219.583H99.492V203.521H94.1253V219.583H87.504V186.385C87.504 185.792 87.024 185.311 86.4306 185.311ZM45.0656 184.223C35.0177 184.223 26.8588 192.38 26.8588 202.451C26.8588 212.497 35.0177 220.656 45.0656 220.656C50.1114 220.656 54.6625 218.617 57.9478 215.311L45.0656 202.451L50.9057 185.188C49.0806 184.565 47.1057 184.223 45.0656 184.223V184.223ZM55.1672 186.385L50.2078 201.044L61.148 211.967C63.956 209.177 65.688 205.311 65.688 201.044C65.688 194.225 61.276 188.445 55.1672 186.385Z" fill="#C2D7F4"/>
<path d="M125.661 264.435H122.429C122.589 263.459 122.763 262.48 122.949 261.497C123.823 262.529 124.733 263.524 125.661 264.435ZM141.489 241.728C141.489 241.728 138.167 235.389 133.433 230.087C137.353 221.964 142.3 213.723 148.428 205.397V233.069C144.781 227.155 140.791 225.273 138.759 225.273C138.224 225.273 137.824 225.403 137.603 225.625C136.4 226.849 142.969 237.712 141.489 241.728Z" fill="#AEC6ED"/>
<path d="M141.272 264.435H125.661C124.733 263.524 123.823 262.529 122.949 261.497C122.715 261.221 122.484 260.943 122.256 260.663C123.387 261.4 124.547 261.925 125.66 262.129C126.112 262.212 126.501 262.251 126.835 262.251C131.363 262.251 125.66 255.151 125.66 255.151C125.66 255.151 129.5 258.243 131.625 258.243C132.043 258.243 132.395 258.123 132.637 257.836C134.113 256.091 129.552 250.817 129.552 250.817C129.552 250.817 131.976 253.328 133.8 253.328C134.585 253.328 135.259 252.861 135.58 251.528C136.356 248.295 131.307 241.407 128.527 237.928C129.135 237.616 129.551 236.984 129.551 236.255C129.551 235.217 128.709 234.376 127.672 234.376H126.003C122.672 229.073 115.819 225.647 115.596 224.015C115.447 222.929 116.152 221.795 118.397 221.795C120.017 221.795 122.44 222.385 125.923 224.015C128.609 225.275 131.181 227.564 133.433 230.087C138.167 235.389 141.489 241.728 141.489 241.728C142.969 237.712 136.4 226.849 137.603 225.625C137.824 225.403 138.224 225.273 138.759 225.273C140.791 225.273 144.781 227.155 148.428 233.069V257.277C148.428 261.231 145.224 264.435 141.272 264.435V264.435ZM117.165 247.275C117.167 247.272 117.168 247.269 117.169 247.268C117.169 247.272 117.169 247.273 117.169 247.273C117.168 247.273 117.167 247.273 117.165 247.275ZM122.171 241.331C122.131 241.309 122.091 241.289 122.052 241.268C122.077 241.245 122.103 241.221 122.128 241.197C122.155 241.284 122.171 241.331 122.171 241.331" fill="#7496CF"/>
<path d="M126.835 262.251C126.501 262.251 126.112 262.212 125.66 262.129C124.547 261.925 123.387 261.4 122.256 260.663C116.709 257.045 111.901 248.313 117.165 247.275C117.167 247.273 117.168 247.273 117.169 247.273C117.169 247.273 117.169 247.272 117.169 247.268C117.152 247.057 116.665 240.688 120.039 240.688C120.597 240.688 121.263 240.863 122.052 241.268C122.091 241.289 122.131 241.309 122.171 241.331C122.171 241.331 122.155 241.284 122.128 241.197C121.999 240.776 121.628 239.419 121.741 238.133H127.672C127.98 238.133 128.271 238.059 128.527 237.928C131.307 241.407 136.356 248.295 135.58 251.528C135.259 252.861 134.585 253.328 133.8 253.328C131.976 253.328 129.552 250.817 129.552 250.817C129.552 250.817 134.113 256.091 132.637 257.836C132.395 258.123 132.043 258.243 131.625 258.243C129.5 258.243 125.66 255.151 125.66 255.151C125.66 255.151 131.363 262.251 126.835 262.251" fill="#87A4DE"/>
<path d="M9.02918 168.98C5.67505 168.98 2.94585 171.709 2.94585 175.063V251.999C2.94585 255.353 5.67505 258.081 9.02918 258.081H136.061C139.416 258.081 142.144 255.353 142.144 251.999V175.063C142.144 171.709 139.416 168.98 136.061 168.98H9.02918ZM136.061 260.228H9.02918C4.49172 260.228 0.79892 256.535 0.79892 251.999V175.063C0.79892 170.525 4.49172 166.833 9.02918 166.833H136.061C140.599 166.833 144.292 170.525 144.292 175.063V251.999C144.292 256.535 140.599 260.228 136.061 260.228" fill="#4F7EB7"/>
<path d="M45.0656 220.656C35.0177 220.656 26.8588 212.497 26.8588 202.451C26.8588 192.38 35.0177 184.223 45.0656 184.223C47.1057 184.223 49.0807 184.565 50.9057 185.188L45.0656 202.451L57.9478 215.311C54.6625 218.617 50.1114 220.656 45.0656 220.656" fill="#90B1E1"/>
<path d="M61.148 211.967L50.2079 201.044L55.1672 186.385C61.276 188.445 65.688 194.225 65.688 201.044C65.688 205.311 63.956 209.177 61.148 211.967" fill="#A482A0"/>
<path d="M127.224 221.731H85.3573V186.385C85.3573 185.792 85.8373 185.311 86.4306 185.311C87.024 185.311 87.504 185.792 87.504 186.385V219.583H94.1253H99.492H105.217H110.585H116.132H121.499H127.224C127.817 219.583 128.297 220.064 128.297 220.657C128.297 221.251 127.817 221.731 127.224 221.731Z" fill="#9BBBEB"/>
<path d="M94.1253 219.583H99.492V203.521H94.1253V219.583Z" fill="#9BBBEB"/>
<path d="M105.217 219.583H110.586V195.372H105.217V219.583Z" fill="#A482A0"/>
<path d="M116.132 219.583H121.499V207.477H116.132V219.583Z" fill="#9BBBEB"/>
<path d="M53.0672 238.133H27.8396C26.8021 238.133 25.9609 237.292 25.9609 236.255C25.9609 235.217 26.8021 234.376 27.8396 234.376H53.0672C54.1041 234.376 54.9453 235.217 54.9453 236.255C54.9453 237.292 54.1041 238.133 53.0672 238.133Z" fill="#9BBBEB"/>
<path d="M91.5293 238.133H66.3027C65.2653 238.133 64.424 237.292 64.424 236.255C64.424 235.217 65.2653 234.376 66.3027 234.376H91.5293C92.568 234.376 93.4093 235.217 93.4093 236.255C93.4093 237.292 92.568 238.133 91.5293 238.133Z" fill="#9BBBEB"/>
<path d="M121.741 238.133H102.445C101.407 238.133 100.565 237.292 100.565 236.255C100.565 235.217 101.407 234.376 102.445 234.376H126.003C126.301 234.852 126.572 235.343 126.807 235.849C126.791 235.832 126.783 235.823 126.783 235.823C125.932 235.584 125.219 235.479 124.62 235.479C122.531 235.479 121.861 236.767 121.741 238.133Z" fill="#9BBBEB"/>
<path d="M128.527 237.928C127.609 236.779 126.939 236.001 126.807 235.849C126.572 235.343 126.301 234.852 126.003 234.376H127.672C128.709 234.376 129.551 235.217 129.551 236.255C129.551 236.984 129.135 237.616 128.527 237.928" fill="#5D82C7"/>
<path d="M127.672 238.133H121.741C121.861 236.767 122.531 235.479 124.62 235.479C125.219 235.479 125.932 235.584 126.783 235.823C126.783 235.823 126.791 235.832 126.807 235.849C126.939 236.001 127.609 236.779 128.527 237.928C128.271 238.059 127.98 238.133 127.672 238.133Z" fill="#6C8ED6"/>
<path d="M69.616 251.552H44.3891C43.3516 251.552 42.5104 250.711 42.5104 249.673C42.5104 248.636 43.3516 247.796 44.3891 247.796H69.616C70.6547 247.796 71.496 248.636 71.496 249.673C71.496 250.711 70.6547 251.552 69.616 251.552Z" fill="#9BBBEB"/>
<path d="M105.759 251.552H80.5306C79.4933 251.552 78.652 250.711 78.652 249.673C78.652 248.636 79.4933 247.796 80.5306 247.796H105.759C106.796 247.796 107.637 248.636 107.637 249.673C107.637 250.711 106.796 251.552 105.759 251.552Z" fill="#9BBBEB"/>
<defs>
<linearGradient id="paint0_linear" x1="423.32" y1="390.708" x2="423.32" y2="261.529" gradientUnits="userSpaceOnUse">
<stop stop-color="#1F3A65"/>
<stop offset="1" stop-color="#294A7A"/>
</linearGradient>
<linearGradient id="paint1_linear" x1="423.32" y1="390.708" x2="423.32" y2="261.529" gradientUnits="userSpaceOnUse">
<stop stop-color="#193057"/>
<stop offset="1" stop-color="#213D69"/>
</linearGradient>
<linearGradient id="paint2_linear" x1="345.384" y1="400.728" x2="345.384" y2="366.001" gradientUnits="userSpaceOnUse">
<stop stop-color="#1F3A65"/>
<stop offset="1" stop-color="#294A7A"/>
</linearGradient>
<linearGradient id="paint3_linear" x1="491.075" y1="400.728" x2="491.075" y2="366.001" gradientUnits="userSpaceOnUse">
<stop stop-color="#1F3A65"/>
<stop offset="1" stop-color="#294A7A"/>
</linearGradient>
<linearGradient id="paint4_linear" x1="449.011" y1="387.677" x2="403.923" y2="316.11" gradientUnits="userSpaceOnUse">
<stop stop-color="#3855E1"/>
<stop offset="1" stop-color="#5C7EF7"/>
</linearGradient>
<linearGradient id="paint5_linear" x1="415.1" y1="212.633" x2="413.659" y2="156.427" gradientUnits="userSpaceOnUse">
<stop stop-color="#3F2323"/>
<stop offset="1" stop-color="#5E3434"/>
</linearGradient>
<linearGradient id="paint6_linear" x1="423.32" y1="390.708" x2="423.32" y2="261.529" gradientUnits="userSpaceOnUse">
<stop stop-color="#183161"/>
<stop offset="1" stop-color="#1F3F75"/>
</linearGradient>
<linearGradient id="paint7_linear" x1="594.437" y1="381.892" x2="622.348" y2="381.892" gradientUnits="userSpaceOnUse">
<stop stop-color="#1F3A65"/>
<stop offset="1" stop-color="#294A7A"/>
</linearGradient>
<linearGradient id="paint8_linear" x1="634.299" y1="286.024" x2="598.873" y2="356.339" gradientUnits="userSpaceOnUse">
<stop stop-color="#E2E8F7"/>
<stop offset="1" stop-color="white"/>
</linearGradient>
<linearGradient id="paint9_linear" x1="423.32" y1="390.708" x2="423.32" y2="261.529" gradientUnits="userSpaceOnUse">
<stop stop-color="#183161"/>
<stop offset="1" stop-color="#1F3F75"/>
</linearGradient>
<linearGradient id="paint10_linear" x1="423.32" y1="390.708" x2="423.32" y2="261.529" gradientUnits="userSpaceOnUse">
<stop stop-color="#183161"/>
<stop offset="1" stop-color="#1F3F75"/>
</linearGradient>
<linearGradient id="paint11_linear" x1="423.32" y1="390.708" x2="423.32" y2="261.529" gradientUnits="userSpaceOnUse">
<stop stop-color="#081232"/>
<stop offset="1" stop-color="#0A1942"/>
</linearGradient>
</defs>
</svg>
